<svg xmlns="http://www.w3.org/2000/svg" width="42" height="42" viewBox="0 0 42 42">
    <g fill="none" fill-rule="evenodd">
        <g>
            <g transform="translate(-517 -838) translate(517 838)">
                <circle cx="21" cy="21" r="20" fill="#F5F5F5" stroke="#F2F7FD" stroke-width="2"/>
                <circle cx="21" cy="21" r="16" fill="#FFF" stroke="#00B1F2" stroke-width="2"/>
                <path fill="#4CB71E" fill-rule="nonzero" stroke="#FFF" d="M40 11.107c.01-.578-.188-1.07-.592-1.473-.413-.413-.906-.625-1.478-.634-.592-.009-1.094.188-1.507.592l-14.124 13.37-4.619-5.025c-.394-.423-.882-.648-1.464-.675-.582-.037-1.09.138-1.521.523-.432.376-.662.85-.69 1.418-.038.57.14 1.07.535 1.501l6.083 6.623c.254.276.568.468.944.579.366.11.737.124 1.112.04.376-.09.704-.265.986-.522l15.701-14.871c.413-.404.624-.886.634-1.446z"/>
            </g>
        </g>
    </g>
</svg>
