<svg width="50" height="50" viewBox="0 0 50 50" xmlns="http://www.w3.org/2000/svg">
    <g transform="translate(0 8)" fill-rule="nonzero" fill="none">
        <rect fill="#0070AF" x="8.59" width="41.41" height="27.314" rx="5.099"/>
        <path fill="#FFB751" d="M8.59 7.219H50v5.075H8.59z"/>
        <rect fill="#19A4D1" y="4.149" width="43.974" height="29.851" rx="6.373"/>
        <path fill="#FFF" d="M1.282 12.636h41.41v5.075H1.282zM28.962 21.757v-.152a.451.451 0 0 1 .205-.203h1.512a.39.39 0 0 1 .218.292c.026.102.052.19.077.292.052.165.103.342.154.507h6.923c.167 0 .295.051.36.203v.153l-.04.076c-.358 1.218-.704 2.448-1.063 3.666-.064.241-.141.292-.398.292h-4.654c-.038 0-.077 0-.09.013-.102.088-.128.291-.063.393.064.101.166.14.282.14h4.59c.179 0 .307.114.307.278 0 .165-.128.28-.308.28h-.936c.026.012.052.025.065.025.346.101.602.406.615.748a.813.813 0 0 1-.551.812c-.052.026-.116.038-.167.051h-.218s-.064-.025-.103-.025a.822.822 0 0 1-.435-1.307.925.925 0 0 1 .5-.304H33.23c.423.088.68.393.705.76a.84.84 0 0 1-.551.838c-.052.025-.116.038-.167.05H33s-.051-.012-.077-.025a.82.82 0 0 1-.461-1.306.856.856 0 0 1 .5-.305h-.654a.814.814 0 0 1-.795-.736c-.026-.215.051-.406.154-.583.025-.05.038-.102.012-.165-.371-1.281-.743-2.55-1.102-3.831-.064-.241-.141-.483-.205-.724h-1.064c-.167 0-.295-.05-.372-.203h.026z"/>
    </g>
</svg>
