<svg xmlns="http://www.w3.org/2000/svg" width="14" height="14" viewBox="0 0 14 14">
    <g fill="none" fill-rule="evenodd">
        <g fill="#0095D9" fill-rule="nonzero">
            <path d="M1078.33 794.548c.367 0 .664.295.664.659 0 .364-.297.66-.664.66h-5.002v9.815h9.885v-4.997c0-.364.297-.66.664-.66.366 0 .664.296.664.66v4.997c0 .728-.595 1.318-1.328 1.318h-9.885c-.734 0-1.328-.59-1.328-1.318v-9.816c0-.728.594-1.318 1.328-1.318h5.002zm4.262.073l1.796 1.807-5.84 5.872c-.11.112-.255.184-.41.205l-1.832.244.243-1.841c.02-.157.092-.302.203-.414l5.84-5.873zm1.403-1.41c.279-.281.731-.281 1.01 0l.786.79c.279.28.279.735 0 1.016l-.73.733-1.796-1.806.73-.734z" transform="translate(-1072 -793)"/>
        </g>
    </g>
</svg>
