<svg xmlns="http://www.w3.org/2000/svg" width="22" height="22" viewBox="0 0 22 22">
    <g fill="none" fill-rule="evenodd">
        <g fill="#666" fill-rule="nonzero">
            <path d="M938.071 771H923.93c-2.17.003-3.926 1.76-3.929 3.929v14.142c.003 2.17 1.76 3.926 3.929 3.929h14.142c2.17-.003 3.926-1.76 3.929-3.929V774.93c-.003-2.17-1.76-3.926-3.929-3.929zm-3.142 13.786h-7.858c-.434 0-.785-.352-.785-.786 0-.434.351-.786.785-.786h7.858c.434 0 .785.352.785.786 0 .434-.351.786-.785.786zm0-4h-7.858c-.434 0-.785-.352-.785-.786 0-.434.351-.786.785-.786h7.858c.434 0 .785.352.785.786 0 .434-.351.786-.785.786z" transform="translate(-920 -771)"/>
        </g>
    </g>
</svg>
