<svg xmlns="http://www.w3.org/2000/svg" width="24" height="24" viewBox="0 0 24 24">
    <g fill="none" fill-rule="evenodd">
        <g>
            <g>
                <path stroke="#F74747" stroke-width="1.308" d="M12.036.5l9.874 20.222c.215.44.032.972-.409 1.188-.12.058-.255.09-.39.09H.889C.397 22 0 21.602 0 21.112c0-.141.033-.28.097-.404L10.447.483c.223-.436.758-.609 1.194-.385.172.088.31.228.395.401z" transform="translate(-620 -501) translate(621 502)"/>
                <path fill="#F74747" fill-rule="nonzero" d="M12.185 14.667l.386-5.238h-2.095l.394 5.238h1.315zm-.652 3.143c.329 0 .585-.095.768-.285.18-.19.27-.447.27-.773 0-.324-.09-.578-.268-.762-.178-.183-.435-.276-.768-.276-.338 0-.6.09-.785.266-.182.178-.274.434-.274.772s.092.6.278.783c.187.184.446.275.78.275h-.001z" transform="translate(-620 -501) translate(621 502)"/>
            </g>
        </g>
    </g>
</svg>
