<svg width="50" height="50" viewBox="0 0 50 50" xmlns="http://www.w3.org/2000/svg">
    <g fill-rule="nonzero" fill="none">
        <path d="m40.25 6.906-13.93.21c-.718 0-1.41.3-1.919.809L2.313 30.019a2.783 2.783 0 0 0 0 3.93l13.733 13.738a2.78 2.78 0 0 0 3.93 0l22.088-22.094c.51-.51.796-1.202.81-1.92l.209-13.933c.025-1.567-1.254-2.834-2.82-2.82l-.014-.014zM37.6 14.35a1.984 1.984 0 0 1-1.985-1.985 1.984 1.984 0 1 1 3.969 0 1.984 1.984 0 0 1-1.985 1.985z" fill="#19A4D1"/>
        <g fill="#FFF">
            <path d="m15.98 39.787-5.782-5.785 3.903-3.904.679.679-3.133 3.134 1.788 1.789 2.716-2.716.678.679-2.715 2.716 2.624 2.624-.77.77zM20.902 34.877l-5.783-5.785 2.572-2.572c.522-.523.966-.862 1.332-1.019.378-.17.77-.196 1.188-.091.417.104.796.313 1.11.627.404.404.626.887.639 1.436.013.548-.222 1.136-.692 1.763.3-.105.548-.17.744-.17.43-.013.9.026 1.41.13l2.585.575-.966.966-1.971-.444c-.575-.117-1.019-.208-1.345-.248-.326-.039-.588-.039-.77 0-.183.04-.353.105-.51.196a2.55 2.55 0 0 0-.456.405l-.888.888 2.572 2.573-.77.77zm-2.467-3.996 1.645-1.645c.353-.353.587-.666.718-.927a1.23 1.23 0 0 0 .104-.797 1.386 1.386 0 0 0-.365-.679 1.215 1.215 0 0 0-.98-.379c-.378.026-.782.248-1.2.68l-1.828 1.828 1.92 1.92h-.014zM26.738 29.027l-5.783-5.785 4.19-4.192.68.68-3.421 3.42 1.775 1.777 3.199-3.2.678.68-3.198 3.199 1.971 1.971 3.551-3.551.679.679-4.321 4.322zM32.13 23.634l-5.784-5.785 4.19-4.192.68.68-3.42 3.42 1.775 1.776 3.198-3.199.679.68-3.198 3.199 1.97 1.971 3.552-3.552.679.68-4.322 4.322z"/>
        </g>
        <path d="M37.808 13.057a.879.879 0 0 1-.626-.262 6.818 6.818 0 0 1-2.01-4.844c0-.914.182-1.815.534-2.651l.105-.235h2.023l-.3.574c-1.018 1.985-.666 4.362.9 5.916a.88.88 0 0 1 0 1.253.879.879 0 0 1-.626.262v-.013z" fill="#000"/>
        <path d="M37.195 5.444c-1.058 2.063-.757 4.648.966 6.372a.497.497 0 0 1-.353.849.529.529 0 0 1-.352-.144 6.443 6.443 0 0 1-1.893-4.57c0-.875.17-1.724.496-2.507h1.123m1.279-.784h-2.924l-.196.483a7.094 7.094 0 0 0-.561 2.808c0 1.932.757 3.76 2.114 5.119.235.235.562.378.901.378.34 0 .666-.13.901-.378a1.277 1.277 0 0 0 0-1.802c-1.436-1.437-1.762-3.63-.822-5.459l.587-1.149z" fill="#FFF"/>
        <path d="M43.056 14.323a.49.49 0 0 1-.483-.405.491.491 0 0 1 .405-.574 5.51 5.51 0 0 0 2.924-1.515c2.128-2.128 2.128-5.602 0-7.743a5.431 5.431 0 0 0-3.864-1.607 5.431 5.431 0 0 0-3.864 1.607c-2.128 2.128-2.128 5.602 0 7.743a.497.497 0 0 1 0 .705.496.496 0 0 1-.705 0 6.443 6.443 0 0 1-1.893-4.57c0-1.724.666-3.343 1.893-4.57A6.44 6.44 0 0 1 42.038 1.5c1.723 0 3.342.666 4.57 1.893a6.411 6.411 0 0 1 1.892 4.57 6.411 6.411 0 0 1-1.893 4.571 6.388 6.388 0 0 1-3.446 1.79h-.105z" fill="#FFB751"/>
    </g>
</svg>
