<svg xmlns="http://www.w3.org/2000/svg" width="16" height="16" viewBox="0 0 16 16">
    <g fill="none" fill-rule="evenodd">
        <g stroke="#222">
            <g>
                <path stroke-width="1.6" d="M7.659.318l6.284 12.869c.137.28.02.618-.26.756-.077.037-.163.057-.248.057H.565C.253 14 0 13.746 0 13.435c0-.09.021-.178.062-.257L6.648.308c.142-.278.483-.388.76-.246.11.056.198.145.251.256z" transform="translate(-474 -944) translate(475 945)"/>
                <path fill="#222" fill-rule="nonzero" stroke-width=".2" d="M7.754 9.333L8 6H6.667l.25 3.333h.837zm-.415 2c.21 0 .372-.06.489-.18.115-.122.172-.285.172-.493 0-.206-.057-.368-.171-.484-.113-.117-.277-.176-.489-.176-.215 0-.381.057-.499.169-.116.113-.174.276-.174.491 0 .216.058.382.177.499.118.117.283.174.496.174h0z" transform="translate(-474 -944) translate(475 945)"/>
            </g>
        </g>
    </g>
</svg>
