<?xml version="1.0" encoding="UTF-8"?>
<svg width="30px" height="30px" viewBox="0 0 30 30" version="1.1" xmlns="http://www.w3.org/2000/svg" xmlns:xlink="http://www.w3.org/1999/xlink">
    <title>Icon_Get Reward Points</title>
    <defs>
        <polygon id="path-1" points="0 0 8.24216172 0 8.24216172 8.33181597 0 8.33181597"></polygon>
        <polygon id="path-3" points="0 0 6.63557302 0 6.63557302 6.70857538 0 6.70857538"></polygon>
    </defs>
    <g id="Icon_Get-Reward-Points" stroke="none" stroke-width="1" fill="none" fill-rule="evenodd">
        <g id="Group-11" transform="translate(2.000000, 2.500000)">
            <path d="M24.7430929,13.1579746 C24.7430929,19.6293022 19.5535513,24.875478 13.1520839,24.875478 C6.75061641,24.875478 1.56155909,19.6293022 1.56155909,13.1579746 C1.56155909,6.68664697 6.75061641,1.44047123 13.1520839,1.44047123 C19.5535513,1.44047123 24.7430929,6.68664697 24.7430929,13.1579746" id="Fill-1" fill="#0070AF"></path>
            <polygon id="Fill-3" fill="#FFB751" points="13.1522291 6.75355798 15.2105181 10.9698817 19.8137063 11.6463339 16.4829677 14.928253 17.2692912 19.562587 13.1522291 17.3741515 9.03516705 19.562587 9.82149056 14.928253 6.49075198 11.6463339 11.0939402 10.9698817"></polygon>
            <g id="Group-7">
                <mask id="mask-2" fill="white">
                    <use xlink:href="#path-1"></use>
                </mask>
                <g id="Clip-6"></g>
                <path d="M8.24216172,4.16590798 C5.11914038,4.72341817 4.6722336,5.1752021 4.12122612,8.33181597 C3.56973444,5.1752021 3.12282767,4.72341817 -0.000193675742,4.16590798 C3.12282767,3.6083978 3.56973444,3.15661386 4.12122612,0 C4.6722336,3.15661386 5.11914038,3.6083978 8.24216172,4.16590798" id="Fill-5" fill="#FFB751" mask="url(#mask-2)"></path>
            </g>
            <g id="Group-10" transform="translate(19.364427, 18.291425)">
                <mask id="mask-4" fill="white">
                    <use xlink:href="#path-3"></use>
                </mask>
                <g id="Clip-9"></g>
                <path d="M6.63581511,3.35436111 C4.12141979,3.8032082 3.7616671,4.16688693 3.31766546,6.70872222 C2.87366382,4.16688693 2.51391113,3.8032082 0,3.35436111 C2.51391113,2.90551402 2.87366382,2.54183529 3.31766546,0 C3.7616671,2.54183529 4.12141979,2.90551402 6.63581511,3.35436111" id="Fill-8" fill="#FFB751" mask="url(#mask-4)"></path>
            </g>
        </g>
    </g>
</svg>