<?xml version="1.0" encoding="UTF-8"?>
<svg width="30px" height="30px" viewBox="0 0 30 30" version="1.1" xmlns="http://www.w3.org/2000/svg" xmlns:xlink="http://www.w3.org/1999/xlink">
    <title>Icon_Card Features &amp; Offers</title>
    <defs>
        <polygon id="path-1" points="0 0 24 0 24 16 0 16"></polygon>
    </defs>
    <g id="Icon_Card-Features-&amp;-Offers" stroke="none" stroke-width="1" fill="none" fill-rule="evenodd">
        <g id="Group" transform="translate(-0.000000, 6.500000)">
            <g id="Group-3">
                <mask id="mask-2" fill="white">
                    <use xlink:href="#path-1"></use>
                </mask>
                <g id="Clip-2"></g>
                <path d="M1.92607514,16 C0.86234696,16 -9.63085727e-05,15.1375688 -9.63085727e-05,14.0738556 L-9.63085727e-05,1.9261444 C-9.63085727e-05,0.862431155 0.86234696,-3.42151978e-15 1.92607514,-3.42151978e-15 L22.0738285,-3.42151978e-15 C23.1375567,-3.42151978e-15 24,0.862431155 24,1.9261444 L24,14.0738556 C24,15.1375688 23.1375567,16 22.0738285,16 L1.92607514,16 Z" id="Fill-1" fill="#2D70A9" mask="url(#mask-2)"></path>
            </g>
            <polygon id="Fill-4" fill="#F4B864" points="0 7.64761257 22.3001089 7.64761257 22.3001089 4.90392762 0 4.90392762"></polygon>
            <polygon id="Fill-6" fill="#19A4D1" points="20.3000194 1.61513781 20.9877254 2.80471994 21.9098868 1.78317295 22.3336068 3.08922389 23.4490596 2.28016579 23.5904488 3.64489566 24.8508703 3.08433398 24.7036645 4.44861932 26.0540202 4.16011453 25.6244836 5.46438732 27.0052648 5.46127556 26.3121896 6.64819047 27.6634402 6.93047173 26.7372519 7.94801789 28.0003579 8.50368966 26.8813256 9.30741332 28.0003579 10.1115815 26.7372519 10.6668087 27.6634402 11.6847994 26.3121896 11.9670807 27.0052648 13.1535511 25.6244836 13.1508838 26.0540202 14.4547121 24.7036645 14.1666518 24.8508703 15.5309372 23.5904488 14.969931 23.4490596 16.3351054 22.3336068 15.5260473 21.9098868 16.8320982 20.9877254 15.8101067 20.3000194 17.0001334 19.6123134 15.8101067 18.690152 16.8320982 18.266432 15.5260473 17.1509791 16.3351054 17.00959 14.969931 15.7491685 15.5309372 15.8963743 14.1666518 14.5460186 14.4547121 14.9755552 13.1508838 13.594774 13.1535511 14.2878492 11.9670807 12.9365986 11.6847994 13.8627869 10.6668087 12.5996808 10.1115815 13.7187132 9.30741332 12.5996808 8.50368966 13.8627869 7.94801789 12.9365986 6.93047173 14.2878492 6.64819047 13.594774 5.46127556 14.9755552 5.46438732 14.5460186 4.16011453 15.8963743 4.44861932 15.7491685 3.08433398 17.00959 3.64489566 17.1509791 2.28016579 18.266432 3.08922389 18.690152 1.78317295 19.6123134 2.80471994"></polygon>
            <path d="M21.6906442,11.062047 C21.8047398,11.1776267 21.9429969,11.2358611 22.1072052,11.2358611 C22.2705186,11.2358611 22.4096705,11.1785158 22.5251085,11.0638251 C22.6405465,10.949579 22.6982654,10.8108833 22.6982654,10.6481826 C22.6982654,10.4859265 22.6405465,10.3472308 22.5251085,10.2329847 C22.4096705,10.118294 22.2705186,10.0609487 22.1072052,10.0609487 C21.9429969,10.0609487 21.8038449,10.118294 21.688407,10.2329847 C21.5734165,10.3472308 21.5156975,10.4859265 21.5156975,10.6481826 C21.5156975,10.8108833 21.5738639,10.9486899 21.6906442,11.062047 L21.6906442,11.062047 Z M20.7237394,10.6481826 C20.7237394,10.2667695 20.8593118,9.94136813 21.1291145,9.67286753 C21.3993646,9.40703415 21.7250966,9.274562 22.1072052,9.274562 C22.4884189,9.274562 22.8145983,9.40836776 23.084401,9.67686836 C23.3550985,9.94536897 23.4897761,10.2689922 23.4897761,10.6481826 C23.4897761,11.027373 23.3550985,11.3514408 23.084401,11.6199414 C22.8145983,11.8879975 22.4884189,12.0226923 22.1072052,12.0226923 C21.7250966,12.0226923 21.3993646,11.8879975 21.1291145,11.6199414 C20.8593118,11.3514408 20.7237394,11.027373 20.7237394,10.6481826 L20.7237394,10.6481826 Z M19.0767349,12.0555881 L18.50044,12.0555881 L21.5156975,6.55932744 L22.0808066,6.55932744 L19.0767349,12.0555881 Z M18.07672,8.37304011 C18.1908157,8.48861984 18.3295202,8.54640971 18.493281,8.54640971 C18.6570419,8.54640971 18.7961938,8.48906438 18.9111844,8.37481826 C19.0266223,8.26012761 19.0843413,8.12187647 19.0843413,7.95917578 C19.0843413,7.79691962 19.0266223,7.65822394 18.9111844,7.54353329 C18.7961938,7.42928717 18.6570419,7.37194184 18.493281,7.37194184 C18.3295202,7.37194184 18.1903682,7.42928717 18.0749303,7.54353329 C17.9594923,7.65822394 17.9017733,7.79691962 17.9017733,7.95917578 C17.9017733,8.12187647 17.9599397,8.25968307 18.07672,8.37304011 L18.07672,8.37304011 Z M17.5151904,8.93093457 C17.2449403,8.66243397 17.1102626,8.33836619 17.1102626,7.95917578 C17.1102626,7.57998536 17.2449403,7.25591758 17.5151904,6.98786151 C17.7854405,6.71936091 18.1116199,6.58511061 18.493281,6.58511061 C18.8749422,6.58511061 19.2011216,6.71936091 19.4709242,6.98786151 C19.7411744,7.25591758 19.875852,7.57998536 19.875852,7.95917578 C19.875852,8.33836619 19.7420692,8.66243397 19.472714,8.93093457 C19.2038062,9.19943518 18.8771794,9.33324094 18.493281,9.33324094 C18.1116199,9.33324094 17.7854405,9.19943518 17.5151904,8.93093457 L17.5151904,8.93093457 Z" id="Fill-7" fill="#FFB751"></path>
        </g>
    </g>
</svg>