<?xml version="1.0" encoding="UTF-8"?>
<svg width="30px" height="30px" viewBox="0 0 30 30" version="1.1" xmlns="http://www.w3.org/2000/svg" xmlns:xlink="http://www.w3.org/1999/xlink">
    <title>Icon_Annual Fee Waiver</title>
    <defs>
        <polygon id="path-1" points="0 22 25 22 25 0 0 0"></polygon>
    </defs>
    <g id="Icon_Annual-Fee-Waiver" stroke="none" stroke-width="1" fill="none" fill-rule="evenodd">
        <g id="Group-29" transform="translate(2.500000, 4.000000)">
            <polygon id="Fill-1" fill="#19A4D1" points="0 22 25 22 25 0.905164466 0 0.905164466"></polygon>
            <polygon id="Fill-2" fill="#2D70A9" points="0 5.40554731 25 5.40554731 25 0.905508243 0 0.905508243"></polygon>
            <g id="Group-28">
                <mask id="mask-2" fill="white">
                    <use xlink:href="#path-1"></use>
                </mask>
                <g id="Clip-21"></g>
                <polygon id="Fill-20" fill="#FFB751" mask="url(#mask-2)" points="2.2509799 3.19574967 3.53147536 3.19574967 3.53147536 2.44268149e-15 2.2509799 2.44268149e-15"></polygon>
                <polygon id="Fill-22" fill="#FFB751" mask="url(#mask-2)" points="21.4685246 3.19574967 22.7490201 3.19574967 22.7490201 2.44268149e-15 21.4685246 2.44268149e-15"></polygon>
                <polygon id="Fill-23" fill="#FFB751" mask="url(#mask-2)" points="11.8801523 3.19574967 13.1606478 3.19574967 13.1606478 2.44268149e-15 11.8801523 2.44268149e-15"></polygon>
                <polygon id="Fill-24" fill="#FFB751" mask="url(#mask-2)" points="16.6743385 3.19574967 17.9548339 3.19574967 17.9548339 2.44268149e-15 16.6743385 2.44268149e-15"></polygon>
                <polygon id="Fill-25" fill="#FFB751" mask="url(#mask-2)" points="7.04516606 3.19574967 8.32566152 3.19574967 8.32566152 2.44268149e-15 7.04516606 2.44268149e-15"></polygon>
            </g>
        </g>
        <polygon id="Fill-8" fill="#2D70A9" points="15.2415087 11 15.7989287 11.9617777 16.5463866 11.1358565 16.8898328 12.1917992 17.793963 11.5376754 17.9085659 12.6410601 18.9302004 12.1878457 18.8108828 13.290871 19.9054135 13.0576148 19.5572527 14.1121199 20.6764447 14.109604 20.1146727 15.0692252 21.2099287 15.2974498 20.4592069 16.1201363 21.4830174 16.5693971 20.5759858 17.2192081 21.4830174 17.8693784 20.4592069 18.3182798 21.2099287 19.1413257 20.1146727 19.3695503 20.6764447 20.3288121 19.5572527 20.3266556 19.9054135 21.3808013 18.8108828 21.1479045 18.9302004 22.2509298 17.9085659 21.797356 17.793963 22.9011001 16.8898328 22.2469763 16.5463866 23.302919 15.7989287 22.4766384 15.2415087 23.4387755 14.6840887 22.4766384 13.9366308 23.302919 13.5931846 22.2469763 12.6890544 22.9011001 12.5744515 21.797356 11.552817 22.2509298 11.6721346 21.1479045 10.5776039 21.3808013 10.9257647 20.3266556 9.80657265 20.3288121 10.3683447 19.3695503 9.27308867 19.1413257 10.0238105 18.3182798 9 17.8693784 9.90703157 17.2192081 9 16.5693971 10.0238105 16.1201363 9.27308867 15.2974498 10.3683447 15.0692252 9.80657265 14.109604 10.9257647 14.1121199 10.5776039 13.0576148 11.6721346 13.290871 11.552817 12.1878457 12.5744515 12.6410601 12.6890544 11.5376754 13.5931846 12.1917992 13.9366308 11.1358565 14.6840887 11.9617777"></polygon>
        <path d="M16.3686432,18.637866 C16.4611234,18.7313123 16.5731877,18.7783948 16.7062867,18.7783948 C16.8386604,18.7783948 16.95145,18.7320311 17.0450182,18.6393037 C17.1385864,18.5469357 17.1853705,18.4348001 17.1853705,18.3032566 C17.1853705,18.1720724 17.1385864,18.0599369 17.0450182,17.9675688 C16.95145,17.8748414 16.8386604,17.8284777 16.7062867,17.8284777 C16.5731877,17.8284777 16.4603981,17.8748414 16.3668299,17.9675688 C16.2736243,18.0599369 16.2268402,18.1720724 16.2268402,18.3032566 C16.2268402,18.4348001 16.273987,18.5462168 16.3686432,18.637866 L16.3686432,18.637866 Z M15.5849186,18.3032566 C15.5849186,17.9948839 15.6948069,17.7317967 15.9134954,17.5147139 C16.1325466,17.2997875 16.3965686,17.1926837 16.7062867,17.1926837 C17.0152795,17.1926837 17.2796641,17.3008657 17.4983527,17.5179486 C17.7177665,17.7350314 17.8269295,17.9966809 17.8269295,18.3032566 C17.8269295,18.6098322 17.7177665,18.8718411 17.4983527,19.088924 C17.2796641,19.3056474 17.0152795,19.4145482 16.7062867,19.4145482 C16.3965686,19.4145482 16.1325466,19.3056474 15.9134954,19.088924 C15.6948069,18.8718411 15.5849186,18.6098322 15.5849186,18.3032566 L15.5849186,18.3032566 Z M14.2499393,19.4411445 L13.7828235,19.4411445 L16.2268402,14.9974154 L16.6848893,14.9974154 L14.2499393,19.4411445 Z M13.4393773,16.4638029 C13.5318576,16.5572491 13.6442845,16.6039722 13.7770208,16.6039722 C13.9097572,16.6039722 14.0225468,16.5576085 14.1157523,16.4652405 C14.2093206,16.372513 14.2561047,16.2607369 14.2561047,16.1291934 C14.2561047,15.9980092 14.2093206,15.8858737 14.1157523,15.7931462 C14.0225468,15.7007782 13.9097572,15.6544145 13.7770208,15.6544145 C13.6442845,15.6544145 13.5314949,15.7007782 13.4379267,15.7931462 C13.3443584,15.8858737 13.2975743,15.9980092 13.2975743,16.1291934 C13.2975743,16.2607369 13.3447211,16.3721536 13.4393773,16.4638029 L13.4393773,16.4638029 Z M12.9842295,16.9148608 C12.7651783,16.6977779 12.6560154,16.435769 12.6560154,16.1291934 C12.6560154,15.8226177 12.7651783,15.5606088 12.9842295,15.3438854 C13.2032807,15.1268025 13.4676654,15.0182611 13.7770208,15.0182611 C14.0863763,15.0182611 14.3507609,15.1268025 14.5694494,15.3438854 C14.7885006,15.5606088 14.8976636,15.8226177 14.8976636,16.1291934 C14.8976636,16.435769 14.789226,16.6977779 14.5709001,16.9148608 C14.3529369,17.1319436 14.0881896,17.2401256 13.7770208,17.2401256 C13.4676654,17.2401256 13.2032807,17.1319436 12.9842295,16.9148608 L12.9842295,16.9148608 Z" id="Fill-9" fill="#FFB751"></path>
    </g>
</svg>