<?xml version="1.0" encoding="UTF-8"?>
<svg width="30px" height="30px" viewBox="0 0 30 30" version="1.1" xmlns="http://www.w3.org/2000/svg" xmlns:xlink="http://www.w3.org/1999/xlink">
    <title>Icon_Fee Reversals</title>
    <g id="Icon_Fee-Reversals" stroke="none" stroke-width="1" fill="none" fill-rule="evenodd">
        <g id="Group-13" transform="translate(4.500000, 0.500000)">
            <path d="M18.7834973,15.0252659 C18.7834973,19.3143722 15.2988713,22.7911245 11.0000514,22.7911245 C6.7012316,22.7911245 3.21660557,19.3143722 3.21660557,15.0252659 C3.21660557,10.7361596 6.7012316,7.25940736 11.0000514,7.25940736 C15.2988713,7.25940736 18.7834973,10.7361596 18.7834973,15.0252659" id="Fill-1" fill="#0070AF"></path>
            <path d="M12.4443582,13.8939744 C12.3229749,15.1312363 11.3380216,15.9194712 9.78215535,15.9682227 C10.7300765,16.9509505 11.7633774,18.1876992 12.7848486,19.4372773 L11.6178203,19.4372773 C10.6693849,18.2970052 9.78215535,17.2414068 8.63930088,16.0287772 L8.63930088,15.2769776 L9.30793761,15.2769776 C10.6210373,15.2769776 11.3261919,14.7309608 11.4110573,13.8939744 L8.63930088,13.8939744 L8.63930088,13.287403 L11.3745394,13.287403 C11.2042942,12.5838417 10.5598313,12.2323177 9.50235659,12.2323177 L8.63930088,12.2323177 L8.63930088,11.4440828 L13.7451138,11.4440828 L13.7451138,12.0506542 L11.7515477,12.0506542 C12.1038678,12.3293076 12.3589784,12.7295831 12.4325285,13.287403 L13.7574579,13.287403 L13.7574579,13.8939744 L12.4443582,13.8939744 Z" id="Fill-3" fill="#FFB751"></path>
            <path d="M18.3091253,6.82326098 C20.5737464,8.83336261 22,11.7630716 22,15.0253172" id="Stroke-5" stroke="#19A4D1" stroke-width="2.64310232" stroke-linecap="round"></path>
            <path d="M21.9996914,15.0252659 C21.9996914,21.0863612 17.0749247,26 11.0001029,26 C4.92476668,26 0,21.0863612 0,15.0252659 C0,8.9641706 4.92476668,4.05053183 11.0001029,4.05053183" id="Stroke-7" stroke="#19A4D1" stroke-width="2.64310232"></path>
            <polygon id="Fill-9" fill="#19A4D1" points="7.9741102 0 16.144851 4.54979858 7.9741102 4.54979858"></polygon>
            <polygon id="Fill-11" fill="#19A4D1" points="7.9741102 9.09985375 16.144851 4.55005517 7.9741102 4.55005517"></polygon>
        </g>
    </g>
</svg>