<svg xmlns="http://www.w3.org/2000/svg" xmlns:xlink="http://www.w3.org/1999/xlink" width="301" height="180" viewBox="0 0 301 180">
    <defs>
        <linearGradient id="prefix__a" x1="-14.279%" x2="116.278%" y1="77.657%" y2="21.483%">
            <stop offset="0%" stop-color="#4CC8F2"/>
            <stop offset="100%" stop-color="#A8DDE2"/>
        </linearGradient>
        <linearGradient id="prefix__c" x1="-41.074%" x2="197.446%" y1="295.347%" y2="-10.932%">
            <stop offset="0%" stop-color="#A8DDE2"/>
            <stop offset="100%" stop-color="#4CC8F2"/>
        </linearGradient>
        <linearGradient id="prefix__f" x1="154.374%" x2="-11.541%" y1="-23.316%" y2="121.625%">
            <stop offset="0%" stop-color="#A8DDE2"/>
            <stop offset="100%" stop-color="#4CC8F2"/>
        </linearGradient>
        <linearGradient id="prefix__i" x1="-52.074%" x2="50%" y1="159.193%" y2="-30.452%">
            <stop offset="0%" stop-color="#4CC8F2"/>
            <stop offset="100%" stop-color="#A8DDE2"/>
        </linearGradient>
        <linearGradient id="prefix__l" x1="-109.694%" x2="165.594%" y1="117.991%" y2="-93.464%">
            <stop offset="0%" stop-color="#A8DDE2"/>
            <stop offset="100%" stop-color="#4CC8F2"/>
        </linearGradient>
        <linearGradient id="prefix__o" x1="-36.465%" x2="143.862%" y1="56.16%" y2="111.717%">
            <stop offset="0%" stop-color="#A8DDE2"/>
            <stop offset="100%" stop-color="#4CC8F2"/>
        </linearGradient>
        <linearGradient id="prefix__r" x1="5.946%" x2="147.964%" y1="5.445%" y2="50.228%">
            <stop offset="0%" stop-color="#4CC8F2"/>
            <stop offset="100%" stop-color="#A8DDE2"/>
        </linearGradient>
        <path id="prefix__b" d="M19.625 0L.278 19c-.37.365-.37.956 0 1.32l8.797 8.639c.371.364.973.364 1.344 0l12.709-12.481V3.429C23.128 1.535 21.56 0 19.625 0z"/>
        <path id="prefix__e" d="M48.508 0L0 51.408h33.587l30.769-32.607V3.456C64.356 1.547 62.893 0 61.089 0H48.508z"/>
        <path id="prefix__h" d="M.35 21.917c-.467.516-.467 1.355 0 1.872L10.71 35.28h9.401V0L.35 21.917z"/>
        <path id="prefix__k" d="M0 27.216h30.795c1.875 0 3.394-1.61 3.394-3.597V7.654L27.463.51c-.32-.34-.74-.51-1.16-.51-.419 0-.838.17-1.158.51L0 27.216z"/>
        <path id="prefix__n" d="M0 27.216h28.942c1.787 0 3.236-1.63 3.236-3.64V7.888L25.54.409C25.299.136 24.98 0 24.664 0c-.318 0-.635.136-.877.409L0 27.216z"/>
        <path id="prefix__q" d="M19.715 0L.228 19.1c-.304.298-.304.782 0 1.08l9.007 8.828c.305.299.799.299 1.103 0l12.79-12.536V0h-3.413z"/>
    </defs>
    <g fill="none" fill-rule="evenodd">
        <path fill="#F9F9F9" d="M145 0c71.797 0 130 58.65 130 130.999 0 13.582-2.051 26.682-5.859 39.001H20.86C17.05 157.68 15 144.581 15 130.999 15 58.65 73.203 0 145 0z"/>
        <path fill="#2A2988" d="M1 166h19c.552 0 1 .448 1 1v1c0 .552-.448 1-1 1H1c-.552 0-1-.448-1-1v-1c0-.552.448-1 1-1zM288 166h12c.552 0 1 .448 1 1v1c0 .552-.448 1-1 1h-12c-.552 0-1-.448-1-1v-1c0-.552.448-1 1-1zM270 166h9c.552 0 1 .448 1 1v1c0 .552-.448 1-1 1h-9c-.552 0-1-.448-1-1v-1c0-.552.448-1 1-1zM26 166h236c.552 0 1 .448 1 1v1c0 .552-.448 1-1 1H26c-.552 0-1-.448-1-1v-1c0-.552.448-1 1-1z"/>
        <g transform="translate(34 52)">
            <path fill="#FFF" fill-rule="nonzero" d="M167.133 82.244l2.282 10.97-9.762 5.453c-.758.423-1.342 1.1-1.653 1.912l-3.995 10.467-11.153-.704c-.88-.05-1.724.2-2.423.713l-9.003 6.639-9.007-6.639c-.635-.468-1.403-.72-2.187-.72-.077 0-.154.003-.233.007l-11.154.704-3.994-10.467c-.31-.812-.894-1.49-1.652-1.912l-9.764-5.454 2.282-10.97c.178-.85.05-1.738-.359-2.504l-5.272-9.882 7.834-7.992c.609-.62.98-1.436 1.048-2.303l.893-11.17 10.9-2.475c.845-.192 1.598-.677 2.124-1.368l6.773-8.913 10.505 3.827c.815.296 1.71.296 2.524 0l10.504-3.827 6.773 8.913c.524.692 1.277 1.176 2.124 1.368l10.9 2.476.893 11.17c.069.866.44 1.681 1.048 2.302l7.837 7.992-5.273 9.882c-.41.766-.538 1.654-.36 2.505z"/>
            <path fill="#268EDC" fill-rule="nonzero" stroke="#EEF7FE" stroke-width="2.8" d="M179.94 66.604l-8.799-8.975-1.002-12.545c-.13-1.615-1.29-2.96-2.868-3.318l-4.89-1.112c.083-.311.143-.631.143-.97V15.564c0-8.582 0-15.563-13.521-15.563H46.704c-13.52 0-13.52 6.981-13.52 15.563v55.66c0 8.581 0 15.562 15.52 15.562h38.518l-1.578 7.583c-.331 1.586.406 3.204 1.818 3.993l10.963 6.125 4.487 11.754c.578 1.513 2.06 2.463 3.683 2.374l12.528-.79 10.114 7.456c.65.48 1.419.72 2.187.72.769 0 1.539-.24 2.19-.72l10.11-7.456 12.526.79c1.598.083 3.106-.86 3.684-2.374l4.486-11.754 10.965-6.125c1.412-.789 2.15-2.407 1.818-3.993l-2.563-12.32 5.922-11.097c.764-1.43.511-3.191-.621-4.347zM40.575 15.563c0-4.496-.352-8.152 8.13-8.152h98.299c7.853 0 8.13 3.656 8.13 8.152v.74H40.574v-.74zm0 8.152h114.559V39.01l-.102-.023-7.607-10.01c-.979-1.289-2.68-1.79-4.201-1.235l-11.796 4.296-11.797-4.296c-1.52-.555-3.223-.052-4.201 1.236l-1.314 1.73c-.404-.152-.837-.247-1.292-.247H40.574v-6.746zm0 47.506V37.872h68.092l-.847 1.115-12.242 2.779c-1.576.359-2.739 1.701-2.868 3.318L91.707 57.63l-8.8 8.975c-1.133 1.156-1.386 2.917-.623 4.347l4.493 8.423H48.704c-4.483-.001-8.13-.001-8.13-8.153zm126.559 11.023l2.282 10.97-9.762 5.453c-.758.423-1.342 1.1-1.653 1.912l-3.995 10.467-11.153-.704c-.88-.05-1.724.2-2.423.713l-9.003 6.639-9.007-6.639c-.635-.468-1.403-.72-2.187-.72-.077 0-.154.003-.233.007l-11.154.704-3.994-10.467c-.31-.812-.894-1.49-1.652-1.912l-9.764-5.454 2.282-10.97c.178-.85.05-1.738-.359-2.504l-5.272-9.882 7.834-7.992c.609-.62.98-1.436 1.048-2.303l.893-11.17 10.9-2.475c.845-.192 1.598-.677 2.124-1.368l6.773-8.913 10.505 3.827c.815.296 1.71.296 2.524 0l10.504-3.827 6.773 8.913c.524.692 1.277 1.176 2.124 1.368l10.9 2.476.893 11.17c.069.866.44 1.681 1.048 2.302l7.837 7.992-5.273 9.882c-.41.766-.538 1.654-.36 2.505z"/>
            <g>
                <path fill="url(#prefix__a)" fill-rule="nonzero" d="M3.321 51.408h73.802c1.834 0 3.321-1.546 3.321-3.453V3.453c0-1.907-1.487-3.453-3.32-3.453H3.32C1.487 0 0 1.546 0 3.453v44.502c0 1.907 1.487 3.453 3.321 3.453z" transform="translate(0 59.472)"/>
                <g transform="translate(0 59.472) translate(57.317 1.008)">
                    <mask id="prefix__d" fill="#fff">
                        <use xlink:href="#prefix__b"/>
                    </mask>
                    <path fill="url(#prefix__c)" fill-rule="nonzero" d="M19.625 0L.278 19c-.37.365-.37.956 0 1.32l8.797 8.639c.371.364.973.364 1.344 0l12.709-12.481V3.429C23.128 1.535 21.56 0 19.625 0z" mask="url(#prefix__d)"/>
                </g>
                <g transform="translate(0 59.472) translate(15.083)">
                    <mask id="prefix__g" fill="#fff">
                        <use xlink:href="#prefix__e"/>
                    </mask>
                    <path fill="url(#prefix__f)" fill-rule="nonzero" d="M48.508 0L0 51.408h33.587l30.769-32.607V3.456C64.356 1.547 62.893 0 61.089 0H48.508z" mask="url(#prefix__g)"/>
                </g>
                <g transform="translate(0 59.472) translate(59.328 16.128)">
                    <mask id="prefix__j" fill="#fff">
                        <use xlink:href="#prefix__h"/>
                    </mask>
                    <path fill="url(#prefix__i)" fill-rule="nonzero" d="M.35 21.917c-.467.516-.467 1.355 0 1.872L10.71 35.28h6.252c1.739 0 3.15-1.564 3.15-3.494V0L.35 21.917z" mask="url(#prefix__j)"/>
                </g>
                <g transform="translate(0 59.472) translate(46.256 24.192)">
                    <mask id="prefix__m" fill="#fff">
                        <use xlink:href="#prefix__k"/>
                    </mask>
                    <path fill="url(#prefix__l)" fill-rule="nonzero" d="M0 27.216h30.795c1.875 0 3.394-1.61 3.394-3.597V7.654L27.463.51c-.32-.34-.74-.51-1.16-.51-.419 0-.838.17-1.158.51L0 27.216z" mask="url(#prefix__m)"/>
                </g>
                <g transform="translate(0 59.472) translate(47.261 23.184)">
                    <mask id="prefix__p" fill="#fff">
                        <use xlink:href="#prefix__n"/>
                    </mask>
                    <path fill="url(#prefix__o)" fill-rule="nonzero" d="M0 27.216h28.942c1.787 0 3.236-1.63 3.236-3.64V7.888L25.54.409C25.298.136 24.98 0 24.664 0c-.318 0-.635.136-.877.409L0 27.216z" mask="url(#prefix__p)"/>
                </g>
                <g transform="translate(0 59.472) translate(57.317)">
                    <mask id="prefix__s" fill="#fff">
                        <use xlink:href="#prefix__q"/>
                    </mask>
                    <path fill="url(#prefix__r)" fill-rule="nonzero" d="M19.715 0L.228 19.1c-.304.298-.304.782 0 1.08l9.007 8.828c.305.299.799.299 1.103 0l12.79-12.536V3.336C23.128 1.494 21.6 0 19.715 0z" mask="url(#prefix__s)"/>
                </g>
                <path fill="#B7EDF6" fill-rule="nonzero" d="M63.349 8.907c-.014-.661-.197-1.143-.547-1.439-.337-.28-.87-.412-1.612-.412-1.1.008-2.138.428-2.138.428l-.147 1.298.238-.117c.33-.155.66-.28.982-.365.308-.086.61-.124.897-.124.4 0 .672.054.847.178.155.102.232.265.239.498.007.187-.056.343-.19.467-.097.101-.336.264-.91.498l-1.297.52c-.497.203-.855.46-1.072.755-.224.311-.33.708-.316 1.182.014.552.218 1.003.596 1.33.147.124.33.233.497.31.253.11.547.164.814.188.666.062 1.29-.156 1.78-.591l-.042.45h1.345v-1.29l.028-3.243c.014-.047.007-.521.007-.521m-2.443 3.17c-.154.013-.298.019-.452.019-.375 0-.656-.051-.843-.16-.18-.103-.273-.245-.281-.437-.009-.18.05-.327.187-.443.128-.122.392-.238.775-.347l1.508-.43c.222-.07.375-.122.503-.18.016-.006.034-.012.042-.019l-.06 1.644c0 .025-.263.115-.306.128-.085.039-.656.187-1.073.225m-3.98.362l-.006-.032-.165.094c-.288.156-.576.281-.864.367-.445.133-.933.187-1.378.039-.15-.055-.295-.133-.418-.234-.124-.094-.227-.211-.316-.344-.356-.539-.432-1.304-.398-1.968.028-.515.124-1.062.398-1.484.082-.125.192-.242.316-.344.13-.101.267-.18.418-.234.63-.211 1.29-.04 1.885.195.2.079.426.18.68.305l.212-1.336c-.548-.203-1.11-.32-1.68-.382-.5-.055-1.008-.024-1.488.148-.46.164-.843.445-1.138.828-.57.734-.734 1.828-.686 2.788.034.765.233 1.64.651 2.241.419.602 1.043.914 1.687.993.652.085 1.29 0 1.927-.188.247-.07.487-.164.727-.266l.028-.007-.014-.024c-.213-.375-.336-.765-.377-1.155m11.452-5.12c-.28-.086-.568-.158-.855-.198-.321-.047-.655-.071-1.03-.064-.734.017-1.256.167-1.59.454-.34.302-.52.795-.541 1.463l-.006.533v4.605h1.296l-.02-.239c-.02-.206-.047-.78-.047-.78-.007-.102-.007-.206-.007-.325l-.08-2.855c-.007-.294-.007-.605.02-.875.02-.143.087-.366.26-.549.662-.66 1.818-.024 1.818-.024.013-.063.04-.135.067-.199.093-.19.207-.365.334-.532.107-.152.24-.287.38-.414m4.782-2.28c.008.127.04.845.04 2.017-.302-.056-.555-.096-.865-.127-.594-.056-1.205-.025-1.775.15-.547.168-1.007.455-1.356.846-.674.75-.872 1.865-.816 2.846.047.781.277 1.674.776 2.288.5.613 1.245.932 2.014 1.012.04 0 .262.024.333.024.19.016.38.016.57.016.254-.008.516-.032.77-.072.095-.016.19-.031.285-.055.087-.024.174-.048.262-.08.031-.008.206-.08.245-.104.222-.103.436-.255.579-.446.04-.048.071-.104.095-.16.056-.12.095-.255.095-.406V5.04H73.16zm-2.603 7.975c-.157-.057-.301-.14-.432-.247-.123-.099-.233-.222-.322-.363-.37-.568-.446-1.376-.411-2.076.027-.544.123-1.121.411-1.566.09-.132.199-.256.322-.363.13-.107.281-.19.432-.248.624-.214 1.234 0 1.837.232l.007 4.079c0 .24-.233.387-.384.461-.212.116-.617.149-.617.149-.288.058-.569.033-.843-.058zm-26.998-2.379c-.402-.313-.914-.514-1.37-.693-.631-.246-1.175-.455-1.175-.85 0-.172.087-.33.236-.448.166-.12.395-.187.639-.187.788 0 1.41.53 1.418.53l.15.134.693-1.238-.079-.082c-.031-.03-.764-.746-2.182-.746-.678 0-1.308.209-1.757.582-.465.38-.717.902-.717 1.47 0 .559.228 1.006.693 1.371.394.314.882.508 1.355.702.646.26 1.206.492 1.206.895 0 .305-.22.641-.843.641-.89 0-1.6-.641-1.608-.649l-.134-.126-.866 1.133.087.09c.007.007.236.246.653.477.386.217 1.017.47 1.852.47.725 0 1.348-.209 1.789-.611.417-.373.646-.896.646-1.462.015-.56-.213-1.03-.686-1.403m6.72-3.58h2.01v7.056h-2.01V7.056zm-1.294 3.896c-.151-.245-.364-.445-.621-.575.409-.33.637-.836.637-1.42 0-.582-.22-1.073-.638-1.41-.394-.322-.94-.491-1.577-.491h-2.54v7.056h2.57c.683 0 1.275-.177 1.706-.506.494-.376.751-.936.751-1.611 0-.376-.098-.744-.288-1.043m-1.564 2.152h-1.164v-5.04h1.024c.46 0 .727.307.727.831 0 .534-.238.805-.705.805h-.357v1.479h.476c.26 0 .475.097.623.28.156.193.223.376.223.648 0 .612-.327.997-.846.997M34.69 7.056c-1.944 0-3.519 1.58-3.519 3.54 0 1.832 1.383 3.338 3.157 3.516v-2.567c-.384-.149-.65-.52-.65-.95 0-.564.45-1.016 1.013-1.016.554 0 1.013.452 1.013 1.016 0 .43-.274.801-.651.95v2.567c1.774-.178 3.157-1.684 3.157-3.517-.007-1.959-1.582-3.539-3.52-3.539" transform="translate(0 59.472)"/>
            </g>
            <ellipse cx="131.645" cy="76.545" fill="#F1F1F8" rx="23.128" ry="23.184"/>
            <path fill="#2A2988" fill-rule="nonzero" d="M150.752 54.477l-36.074 36.162c-2.707 3.105 0 4.94 2.05 2.054L152.8 56.53c2.801-3.35.688-5.122-2.05-2.053zM120.67 71.568c2.687 0 5.212-1.05 7.113-2.953 3.92-3.932 3.92-10.329-.001-14.26-3.92-3.928-10.302-3.93-14.225 0-1.9 1.904-2.946 4.437-2.946 7.13 0 2.691 1.047 5.224 2.946 7.128 1.9 1.904 4.427 2.955 7.113 2.955zm-4.983-15.073c1.372-1.375 3.18-2.063 4.98-2.063 1.805 0 3.609.684 4.978 2.063 2.747 2.754 2.747 7.233.003 9.984-2.748 2.753-7.217 2.753-9.96 0-2.745-2.754-2.748-7.23 0-9.984zM144.797 76.608c-2.687 0-5.212 1.05-7.113 2.953-3.92 3.931-3.92 10.328 0 14.26h.001c1.961 1.965 4.537 2.947 7.112 2.947 2.576 0 5.151-.982 7.112-2.948 1.9-1.904 2.947-4.437 2.947-7.128 0-2.692-1.047-5.225-2.947-7.13-1.9-1.903-4.425-2.954-7.112-2.954zm4.983 15.07c-2.748 2.754-7.217 2.754-9.96 0-2.745-2.753-2.745-7.233 0-9.98 2.746-2.754 7.216-2.754 9.96 0 2.744 2.753 2.747 7.233 0 9.98z"/>
        </g>
    </g>
</svg>
