<svg width="50" height="50" viewBox="0 0 50 50" xmlns="http://www.w3.org/2000/svg">
    <g fill-rule="nonzero" fill="none">
        <path d="M44.09 4.013H13.657c-2.415 0-4.363 1.977-4.363 4.4V36.6h23.582v4.987c0 2.436 1.96 4.4 4.362 4.4 2.403 0 4.363-1.977 4.363-4.4V8.413a4.42 4.42 0 0 1 2.655-4.056c.063-.038.607-.357-.164-.357v.013z" fill="#0070AF"/>
        <path d="M32.862 41.6v-4.987H5.5V41.6a4.391 4.391 0 0 0 3.78 4.362V46h27.945c-2.415 0-4.363-1.977-4.363-4.4z" fill="#005F99"/>
        <path d="M18.928 23.068v-7.984l1.733 1.747L22 15.479l-4.021-4.056-4.02 4.056 1.34 1.352 1.732-1.747v7.984c0 2.219-1.783 4.017-3.983 4.017v1.913c2.073 0 3.882-1.084 4.931-2.729 1.05 1.633 2.858 2.73 4.931 2.73v-1.914c-2.2 0-3.983-1.798-3.983-4.017z" fill="#FFB751"/>
        <g fill="#FFF">
            <path d="M25.718 12.992h11.506v1.913H25.718zM25.718 17.686h11.506v1.913H25.718zM25.718 27.086h11.506v1.913H25.718zM25.718 22.392h11.506v1.913H25.718z"/>
        </g>
    </g>
</svg>
